HIERARCHY
ROOT pelvis
{
  OFFSET 0 100 0
  CHANNELS 6 Xposition Yposition Zposition Zrotation Xrotation Yrotation
  JOINT pelvis_right_femur
  {
    OFFSET -10.78128 -3.44521 -0.5502486
    CHANNELS 3 Zrotation Xrotation Yrotation
    JOINT right_femur_tibia
    {
      OFFSET -0.8047443 -44.0398 -0.1307829
      CHANNELS 3 Zrotation Xrotation Yrotation
      JOINT right_tibia_foot
      {
        OFFSET 3.006224 -47.83518 -5
        CHANNELS 3 Zrotation Xrotation Yrotation
        End Site
        {
          OFFSET 0 -5 15
        }
      }
    }
  }
  JOINT pelvis_left_femur
  {
    OFFSET 10.78128 -3.44521 -0.5502486
    CHANNELS 3 Zrotation Xrotation Yrotation
    JOINT left_femur_tibia
    {
      OFFSET 0.8047443 -44.0398 -0.1307829
      CHANNELS 3 Zrotation Xrotation Yrotation
      JOINT left_tibia_foot
      {
        OFFSET -4.370144 -48.10324 -4.275266
        CHANNELS 3 Zrotation Xrotation Yrotation
        End Site
        {
          OFFSET 0 -5 15
        }
      }
    }
  }
  JOINT pelvis_spine1
  {
    OFFSET 0 6.468898 -3.129235
    CHANNELS 3 Zrotation Xrotation Yrotation
    JOINT spine1
    {
      OFFSET 0 23.15396 4.99043
      CHANNELS 3 Zrotation Xrotation Yrotation
      JOINT spine2
      {
        OFFSET 0 20.79997 -5.064912
        CHANNELS 3 Zrotation Xrotation Yrotation
        JOINT neck
        {
          OFFSET 0 14.38658 9.616178
          CHANNELS 3 Zrotation Xrotation Yrotation
          End Site
          {
            OFFSET 0 20 0
          }
        }
      }
      JOINT right_manubrium
      {
        OFFSET -5.722621 16.35077 3.967754
        CHANNELS 3 Zrotation Xrotation Yrotation
        JOINT right_clavicle
        {
          OFFSET -13.16364 1.694482 -4.693211
          CHANNELS 3 Zrotation Xrotation Yrotation
          JOINT right_humerus
          {
            OFFSET -28.5034 -0.3100689 -2.792744
            CHANNELS 3 Zrotation Xrotation Yrotation
            JOINT right_radius
            {
              OFFSET -25.15693 0.02248979 -1.271978
              CHANNELS 3 Zrotation Xrotation Yrotation
              End Site
              {
                OFFSET -15 0 0
              }
            }
          }
        }
      }
      JOINT left_manubrium
      {
        OFFSET 5.722621 16.35077 3.967754
        CHANNELS 3 Zrotation Xrotation Yrotation
        JOINT left_clavicle
        {
          OFFSET 13.16364 1.694482 -4.693211
          CHANNELS 3 Zrotation Xrotation Yrotation
          JOINT left_humerus
          {
            OFFSET 29.39168 -1.063119 -2.237045
            CHANNELS 3 Zrotation Xrotation Yrotation
            JOINT left_radius
            {
              OFFSET 24.59957 -0.9528479 0.9047498
              CHANNELS 3 Zrotation Xrotation Yrotation
              End Site
              {
                OFFSET 15 -0 -0
              }
            }
          }
        }
      }
    }
  }
}
MOTION
Frames: 15
Frame Time: 0.0416666666667
0 103.5113 0 1.453068 -0.6130056 -0.008254692 3.372747 -15.59635 10.44155 -0 37.91584 -0 -4.735114 -18.3449 -4.185335 -7.751726 10.46931 -23.99544 -0 4.158091 -0 11.6297 -16.23106 28.68366 -4.550249 -4.064876 4.700716 3.021034 9.318695 -7.710664 1.414025 22.14516 6.434085 2.409487 -24.78994 9.595766 6.293943 -20.12932 11.63336 85.33184 35.79743 -18.5478 -0 0 16.41288 -6.100447 7.891437 5.212457 5.180206 -18.17262 -1.112375 -93.93511 26.93468 22.22176 0 0 -15.4116 7.033309 15.78309 5.583162
0.328468 103.4779 1.426433 1.297084 -0.6479961 -0.007686149 3.440366 -16.3963 10.02087 -0 37.83712 -0 -5.020882 -17.24408 -3.947047 -7.560416 10.67078 -23.72855 -0 4.204581 -0 11.19089 -16.47186 28.22699 -4.394069 -3.881796 4.555567 2.92355 9.422437 -7.702871 1.406396 22.13787 6.577133 2.552703 -24.76435 9.629011 6.270782 -20.01687 11.65081 85.48308 35.82908 -18.61241 -0 0 16.10934 -6.62075 8.185616 5.303289 5.263922 -18.4889 -1.292518 -93.61109 26.8249 21.85296 0 0 -15.83135 7.281509 15.98194 5.367354
0.6146357 103.399 3.131242 0.7070687 -0.3495901 0.03632987 4.043916 -19.56954 8.932134 -0 35.77616 -0 -5.628251 -14.69715 -3.441497 -6.942638 11.51494 -22.86388 -0 4.6657 -0 9.339507 -17.68862 26.61023 -3.807515 -3.260783 4.186838 2.747568 9.467137 -7.794484 1.401022 21.97654 6.948751 2.964836 -24.83443 9.696619 6.146829 -19.59046 11.58804 85.98616 35.8388 -19.17071 -0 0 15.33674 -7.53504 8.774679 5.24556 5.668749 -19.41368 -1.634671 -93.00708 27.17308 20.96138 0 0 -17.38188 7.347869 16.44035 5.600021
0.8705227 103.2515 5.094888 0.231797 0.01361415 0.1213496 4.576286 -22.29803 8.097528 -0 33.50266 -0 -6.040759 -12.74873 -3.011114 -6.486948 12.13195 -22.03199 -0 5.110187 -0 8.073084 -18.59298 25.30692 -3.350615 -2.77803 3.937611 2.681682 9.520818 -7.911128 1.391057 21.76574 7.202457 3.253543 -24.98697 9.734955 6.001329 -19.28899 11.55516 86.39285 35.76158 -19.64136 -0 0 14.73745 -8.183623 9.167962 5.223285 6.035292 -20.17563 -1.845113 -92.41186 27.07918 20.12701 0 0 -18.6389 7.748489 16.56951 5.333106
1.096695 103.0466 7.285716 -0.1561935 0.6527373 0.2284221 5.269983 -24.66119 7.835128 -0 30.71816 -0 -6.088753 -12.05791 -2.874349 -6.198758 12.62738 -21.4517 -0 5.812827 -0 7.15743 -19.37683 24.38202 -3.017559 -2.453787 3.851048 2.769619 9.371184 -8.068707 1.414562 21.47305 7.309066 3.407088 -25.24961 9.782524 5.928794 -19.01057 11.45452 86.59053 35.81608 -20.11746 -0 0 14.45067 -8.049617 9.264418 4.961566 6.3948 -20.5874 -1.736397 -92.19273 27.13158 19.65859 0 0 -19.5142 7.955179 16.42644 5.253799
1.298198 102.8087 9.673681 -0.4534068 1.387325 0.3579152 6.011947 -26.43088 8.019709 -0 28.18553 -0 -5.931069 -12.12754 -2.946494 -6.041498 12.96493 -21.12919 -0 6.765187 -0 6.49403 -19.97005 23.79396 -2.797524 -2.261728 3.86519 2.923523 9.093372 -8.202819 1.475499 21.17005 7.318169 3.468421 -25.53565 9.857121 5.933612 -18.73954 11.29959 86.6062 36.0069 -20.4932 -0 0 14.37787 -7.432542 9.195861 4.575545 6.696086 -20.67799 -1.414256 -92.27798 27.31808 19.52554 0 0 -19.94913 7.978189 16.15278 5.370912
1.474405 102.5928 12.22664 -0.6680815 2.206929 0.5117515 6.866872 -27.37064 8.805498 -0 26.11405 -0 -5.5357 -13.18964 -3.363017 -6.005951 13.13116 -21.20409 -0 8.221732 -0 5.766337 -20.44857 23.5476 -2.671339 -2.179837 3.983355 3.117772 8.567778 -8.271945 1.607735 20.88803 7.21492 3.443432 -25.79607 9.973872 6.040611 -18.40963 11.01661 86.379 36.36011 -20.74176 -0 0 14.60478 -6.113798 8.870748 3.952224 6.919653 -20.28836 -0.8185185 -92.97011 28.10819 20.0005 0 0 -19.723 7.326979 15.8145 6.31396
1.626082 102.4353 14.97159 -0.8557228 2.94989 0.7062077 7.718764 -27.71666 9.790849 -0 24.53495 -0 -5.129277 -14.42971 -3.941706 -5.993696 13.17105 -21.43608 -0 10.21355 -0 4.636588 -20.89414 23.30449 -2.543778 -2.086362 4.117748 3.257659 7.897911 -8.238641 1.795503 20.66281 7.080387 3.423655 -25.94561 10.109 6.165603 -17.98372 10.62702 86.04037 36.70246 -20.86187 -0 0 14.94172 -4.573917 8.414286 3.23088 7.097843 -19.63227 -0.140604 -94.07208 29.3406 20.85932 0 0 -19.04298 6.133266 15.47622 7.937732
1.759337 102.314 18.08284 -1.215978 3.621995 1.003262 8.558791 -28.85311 10.21725 -0 22.63476 -0 -5.098214 -13.96464 -4.174969 -5.773582 13.34344 -21.173 -0 12.48387 -0 2.782101 -21.5425 22.27995 -2.210859 -1.781406 4.095949 3.26013 7.390469 -8.167352 1.976212 20.40726 7.116021 3.580274 -26.05105 10.26305 6.175219 -17.44266 10.261 85.95817 36.89181 -21.08005 -0 0 14.85581 -3.831924 8.336222 2.741383 7.374614 -19.38765 0.2985492 -94.75086 30.29681 21.29744 0 0 -18.9501 5.190316 15.21816 9.357766
1.916459 101.9983 22.01449 -2.021729 4.450054 1.541662 9.258285 -33.54544 8.591438 -0 17.83525 -0 -6.027143 -8.11448 -2.866391 -5.095006 14.1464 -18.88229 -0 13.54865 -0 0.7345162 -22.63381 19.20201 -1.435221 -1.174452 3.720343 3.152073 7.906438 -8.358933 1.939922 19.79679 7.609027 4.039357 -26.59209 10.38097 5.614786 -17.13624 10.37339 87.12558 36.3119 -22.11124 -0 0 13.22923 -6.041819 9.629939 3.539809 7.984603 -21.12239 -0.08535237 -92.78422 28.67459 19.42158 0 0 -22.22298 6.735091 14.85277 7.9477
2.205265 100.6526 27.59896 -2.184341 4.755717 2.358001 7.052316 -39.48347 1.457291 -0 4.442017 -0 -8.095933 4.819029 0.923868 -4.956743 16.00718 -12.23603 -0 10.37621 -0 -0.2452635 -24.07357 12.92583 -0.6291307 -1.395838 3.563691 3.048335 10.35584 -9.116834 1.114344 18.8632 8.153711 4.241976 -27.50063 9.345932 2.532721 -18.48383 11.46356 91.50078 30.58858 -25.50748 -0 0 9.291506 -13.72267 10.91016 7.535018 8.780603 -26.48821 -2.339083 -86.83428 21.71922 14.56513 0 0 -33.19563 10.48789 12.54637 3.187829
2.542678 98.17394 34.78979 -0.01555541 2.34522 3.220507 3.291777 -33.29178 -4.513698 0 -6.31549 0 -8.948858 11.31678 1.462344 -6.76719 19.55515 -6.400707 -0 7.118805 -0 1.143763 -23.65784 9.822991 -1.096988 -4.122107 3.824842 3.084339 12.05213 -9.614428 0.342157 19.50661 6.875329 2.406691 -27.03317 7.339119 -3.228076 -20.70281 11.68787 97.28998 18.78868 -28.59641 -0 0 4.616572 -19.12498 7.986296 11.35809 7.717618 -29.78647 -4.959335 -82.17508 16.82113 10.6831 0 0 -43.43755 8.986132 9.404522 3.049298
2.815487 96.6669 42.26924 -0.2224971 1.163182 4.123971 5.263714 -28.02081 0.1697992 -0 1.753165 -0 -9.017326 7.223023 -1.997947 -6.246198 21.98819 -7.652669 -0 11.78085 -0 1.484602 -20.16894 11.97646 -1.023832 -4.90946 2.675295 3.449082 11.08506 -9.692262 0.8307534 20.23138 5.813466 1.147729 -26.67591 7.675114 -3.557094 -19.5606 10.91776 97.80558 18.14099 -27.9707 -0 0 2.673235 -15.51467 6.773778 10.50553 6.098076 -27.06341 -4.310647 -82.63995 19.22495 10.1135 0 0 -38.78475 7.294185 9.039439 4.73336
3.062113 96.36503 49.42459 -1.919125 1.991325 4.750906 8.207492 -28.31728 4.927028 -0 10.40249 -0 -9.037734 2.855523 -3.360209 -4.43618 20.50127 -9.584543 -0 19.29606 -0 -0.6796802 -16.29502 12.48586 -0.2205771 -3.555262 1.915424 3.818778 10.16035 -9.846339 0.8282992 19.7042 6.219578 1.987803 -26.63909 7.942655 0.04872579 -17.68293 10.91828 94.73722 24.43706 -26.57581 -0 0 3.937745 -11.26804 7.223966 8.258799 5.910994 -24.54879 -3.031948 -85.12229 21.13937 11.86602 0 0 -30.4448 8.217038 8.515903 4.123199
3.396214 96.77548 56.38167 -2.960123 2.509162 5.03252 9.899178 -27.75619 7.164952 -0 14.63738 -0 -8.589715 0.4194517 -3.182834 -3.324193 17.06198 -9.979093 -0 28.20551 -0 -2.73417 -12.65174 11.9134 0.400216 -2.285338 2.072302 4.017826 10.09548 -9.921039 0.434482 19.06746 6.790929 3.128127 -26.45796 7.506075 3.179501 -16.71691 11.37557 92.0085 29.44996 -25.49939 -0 0 5.619619 -9.239971 7.711866 6.835375 6.074454 -23.38993 -2.451567 -87.10111 21.21907 13.93956 0 0 -25.0376 9.228393 7.3084 3.168205
